# xmcd CD Database Entry
#
# Track frame offsets:
# 150
# 2728
# 29750
# 54618
# 78844
# 123238
# 156587
# 172017
# 205967
# 235882
# 256269
# 283925
# 302318
#
# Disc length: 4428 seconds
#
# Revision: 2
# Processed by: cddbd v1.4b41PL1 Copyright (c) Steve Scherf et al.
# Submitted via: tcd 2.0b
#
DISCID=b0114a0d
DTITLE=Guitar  Crusher - Live at Yorkschlösschen Berlin
DYEAR=1900
DGENRE=
TTITLE0=Opener
TTITLE1=Who's makeing love
TTITLE2=Ain't nothing you can do
TTITLE3=The Blues is alright
TTITLE4=Mustang sally
TTITLE5=Fannie mae
TTITLE6=Shake
TTITLE7=A change is gonna come
TTITLE8=Funky Broadway
TTITLE9=What am  I living for
TTITLE10=Barefootin
TTITLE11=I 've been loving you too long
TTITLE12=Land of thousand dances
EXTD=\\
EXTT0=
EXTT1=
EXTT2=
EXTT3=
EXTT4=
EXTT5=
EXTT6=
EXTT7=
EXTT8=
EXTT9=
EXTT10=
EXTT11=
EXTT12=
PLAYORDER=
